<svg id="Graphic_Elements" data-name="Graphic Elements" xmlns="http://www.w3.org/2000/svg" viewBox="0 0 1200 1200"><path d="M688.57,81.56c-2.23,1.3-3.34,4.46-3.34,9.29,0,6.13.74,7.62,5.2,9.66,4.46,2.23,5.2,3.71,6.31,15.42.56,7.24,1.49,24.14,1.86,37.7l.56,24.52H685.23c-7.62,0-27.3-1.3-43.65-2.79s-45.32-2.79-64.45-2.79H542.21V138c0-31.95.37-35.11,3.9-41.61,6.5-11.7,4.83-13-17.27-13C501,83.42,451.39,87,447.3,89c-4.64,2.6-4.46,5.58,1.12,17.28,2.6,5.2,5.57,15.41,6.5,22.66,2,15.6,2.23,38.26.37,41-.74,1.12-9.29,3.53-19,5.2s-22.84,4.46-29.16,6-13.37,2.6-15.78,2.6c-10.4,0-43.65,7.06-70.4,14.86-6.68,2-13.37,3.71-14.86,3.71-4.45,0-41,12.45-50.89,17.27-5,2.61-22.66,11-39,18.95-16.35,7.8-31,14.86-32.5,15.79s-7.25,3.9-12.82,6.68c-26.75,13-61.11,38.27-75.78,55.72-5.39,6.5-12.07,16.91-14.86,23.41-2.6,6.5-5.57,12.63-6.31,13.56-2.6,3.52-5.76,49.77-4.65,64.07,2.42,26.94,9.85,44.95,29.35,71.7,8.17,11,31.2,31.57,41.79,37,3.9,2,7.43,4.08,8,4.83,1.85,2.23,38.26,18.57,45.5,20.43,3.16.74,13.93,4.46,24.15,8.17s21.91,7.43,26,8.17c50.89,9.85,59.25,11.52,65,13.19,3.15.93,10.58,2,16.71,2.79,6.13.55,20.8,2.23,32.51,3.71s33.06,3.9,47.36,5.57,31.76,3.9,38.82,5l12.81,1.86-1.3,172c-.74,94.72-1.48,172.36-1.86,172.54-.18.37-13.55,1.49-29.34,2.79-60.74,4.46-171.43-8.92-216-26.38-2-.74-7.43-2.78-12.07-4.64-10.4-3.9-10.4-3.9-23.59-13-30.09-20.62-50.89-39.75-60.74-55.35l-3.15-5.2,7,1.49c3.9.74,16.72,1.48,28.61,1.48,20.8-.18,22.1-.37,34.36-6.5,20.43-10,39.93-31.57,42.72-47.17a45.87,45.87,0,0,1,2.41-8.36c1.67-3.16,1.86-29,.19-30.46-2.6-2.6-18.76-14.31-19.51-14.31-.55,0-6.87-3.71-14.3-8.35l-13.18-8.18H150.5l-27.12.19-13.56,7.43c-7.43,4.09-14.3,9.1-15.41,11-.93,1.86-2.6,3.53-3.53,3.53-4.46,0-14.86,13.93-14.86,19.87a11.82,11.82,0,0,1-2.79,6.87c-1.48,1.49-2.78,3.35-2.78,4.27a22.1,22.1,0,0,1-2.6,6.32c-1.3,2.6-3.53,11.33-4.65,19.5-2.6,16-.93,31.39,4.46,42.16,1.49,3,2.79,6.5,2.79,7.62,0,3.71,6.68,15.6,12.81,22.84C103,897.87,107,902.33,111.31,904.93c2.6,1.67,10.21,7.24,17.09,12.81,6.68,5.39,21.36,14.49,32.5,20.06,11,5.57,20.43,10.77,20.62,11.52a3.48,3.48,0,0,0,2.78,1.48c1.3,0,11.15,4.46,21.92,10,15.41,7.8,23.4,10.77,36.22,13,9.1,1.49,21.17,4.09,26.74,5.95,5.58,1.67,15.23,4.08,21.36,5.57a189.85,189.85,0,0,1,18.95,5.2c4.08,1.49,8,2.41,8.36,1.86.55-.37,5.57.93,11.33,2.78,5.57,2,10.58,3.16,11.14,2.79.37-.37,4.46.56,8.91,2.23a113.19,113.19,0,0,0,14.68,3.71c3.53.37,13.18,2.05,21.36,3.53,8.17,1.3,26.93,2.6,41.6,2.79,14.67,0,27.49.55,28.23,1.11.93.56,1.68,8.36,1.68,17.46,0,15.42-1.12,24.15-5.95,44.58-1.11,4.64-2.78,12.44-3.53,17.64-.74,5-2,11.89-2.78,15.23-.93,4.46-.19,6.69,3,9.85,4.08,4.08,4.27,4.27,48.1,2.78,24.15-.74,45.32-2,47-3,5.21-2.79,5.76-9.66,1.68-22.1-3-8.92-3.35-12.26-1.68-14.3,1.49-1.86,1.49-3.16,0-4.65s-2.22-10.21-2.22-25.07V1027h8.91c9.66,0,110.14,3.35,148.59,4.83l24.52,1.12v11.33c0,6.13-.75,13.74-1.68,16.9s-3.9,12.63-6.5,20.8c-9.1,28.79-10.77,27.86,48.85,30.46,26,1.12,48.85,1.67,51.08,1.12a12.42,12.42,0,0,0,6.31-4.83c2.6-4.27,2-10.59-4.64-62-3.16-24.52-3-25.26,8.54-25.26,3.53,0,11.15-1.3,16.72-2.6,15.79-4.08,36.22-8.73,41.23-9.29,7.25-.74,24.15-4.82,33.25-8,4.64-1.49,9.29-3,10.22-3.16,19.5-4.64,84.13-26.19,96.58-32.32,16.16-8,38.63-22.84,48.1-31.76,8.55-8.17,25.45-28.6,35.29-42.72,13.93-20.43,25.08-47,31-74.85,2.41-11.14,1.11-49.22-2-63.7-5.2-24.34-8.18-31.77-20.25-50.15-22.29-34.55-62-60.55-121.84-79.68-15.23-4.83-30.28-10-33.43-11.33-3-1.49-11.15-5.2-18-8.18-6.87-3.15-15.23-5.75-18.57-5.75s-11.52-1.3-18.2-3c-6.51-1.48-15-3-18.76-3.34-3.9-.37-13.38-2-21.55-3.53-19.32-3.71-45.88-8.36-56.46-9.66l-8.55-1.11L798,541.63c-.74-19.69-2.23-85.07-3.34-145.25-1.86-88.22-1.68-115.71.18-140l2.42-30.27,8.35,1.3c4.65.74,15,1.48,23.41,2,41,1.86,42.9,2.23,68.9,14.86,19,9.1,31.58,19.13,40.12,31.94,4.65,6.88,11,20.43,11,23.78,0,.18-4.46-1.3-9.66-3.72a109.77,109.77,0,0,0-21-6.31c-11.71-2.23-18-1.12-34.74,5.94-7.24,3.16-18.2,15.05-18.2,19.88a30.88,30.88,0,0,1-2.6,9.28c-1.3,3.53-3,13.38-3.71,22.1l-1.3,16,7.05,8.17c3.9,4.64,7.62,8.73,8.55,8.92.74.37,5.38,3.34,10.21,6.68,14.49,9.85,21.92,11.33,40.87,8.55,26.18-3.9,42.71-12.82,55.16-29.72,17.83-24.15,18.94-58.69,3.16-94.91-4.28-9.66-18-24.15-34.55-35.85-10.4-7.43-47.55-26.56-54.79-28-1.67-.38-10-3.16-18.76-6.13a264.39,264.39,0,0,0-41.79-10.59c-2-.37-8.92-1.86-15-3.53-6.31-1.67-14.48-3-18-3-6.13,0-6.32-.19-7.62-8.55-2.23-16.71-1.3-39.19,2-46.62,1.67-3.9,4.64-10.4,6.5-14.67,4.08-9.1,4.27-19.87.55-23.59-3.53-3.71-10.58-4.64-47.36-6.87-16.9-1.11-37.7-2.23-46.43-2.78C697.67,79.89,690.43,80.26,688.57,81.56Zm-38.07,135c20.61.75,31,1.86,31,3.16s3.16,1.86,8.55,1.3c5.94-.37,9.1.19,10.21,1.86.93,1.48,1.67,20.06,1.67,41.6,0,21.36,1.31,72.44,2.61,113.3,1.48,40.86,3.15,97.14,3.71,124.81l.93,50.71-17.09-1.11c-9.47-.56-25.63-2.23-36.22-3.72-10.4-1.48-22.47-2.6-26.93-2.6a148.41,148.41,0,0,1-21.73-2.6c-19.5-3.71-45.69-8.17-56.09-9.47l-8.92-1.12V217.34l20.06-.75C605.92,215.29,621,215.29,650.5,216.59Zm-196.88,78c1.3,52,.55,219.17-.93,220.65-.56.56-5.76,0-11.89-.92-5.94-1.12-17.64-3.16-25.82-4.65s-17.83-3-21.54-3.53c-7.8-.93-34.55-13.74-50.33-24C318,466,302.62,449.69,286.46,423.32c-18.21-30.28-15.79-48.67,13.18-95.66,3.53-5.57,23.22-23.59,27.68-24.89A87.81,87.81,0,0,0,337,297.2a231.24,231.24,0,0,1,35.29-18.76c2-.93,9.28-4.27,16-7.24a302.92,302.92,0,0,1,35.1-13.56,48,48,0,0,0,8.36-3c1.67-1.12,17.09-7.06,19.69-7.62C452,247.05,453.06,268.41,453.62,294.6ZM298.53,252.25c4.09,2.42,1.86,8.55-3.34,9.11-2.6.37-14.12,6.87-25.45,14.67-15.79,10.4-25.63,18.76-39.56,33.62-10.22,11-18.57,21.54-18.57,23.4s-2.79,6.87-6.13,11.14c-3.16,4.27-10,13.56-15,21l-8.91,13.19,2.23,17.46c1.11,9.47,3.52,20.06,5.2,23.59,7.05,14.67,21.36,29.71,46.24,48.84,4.83,3.9,11.15,8.92,13.93,11.15,2.79,2.41,8.55,6.68,12.63,9.84,5.2,3.72,7.43,6.69,7.06,9.29-.74,5-7.43,5.76-11.7.93-1.86-2.05-5-3.72-6.87-3.72-2,0-9.66-3.53-16.9-8-7.43-4.28-18.21-10.41-24.15-13.38a93.19,93.19,0,0,1-18.57-13.56c-4.27-4.45-11.7-12.07-16.53-16.71l-8.73-8.73L165,416.82c-.75-30.84,2-57.95,5.94-61.48,2-1.86,3.53-3.9,3.53-4.83,0-.74,3-5.57,6.5-10.59,3.53-4.83,6.5-9.84,6.5-11a5,5,0,0,1,2.41-3.53c2.23-1.48,5.39-5.94,8.73-12.63,4.09-8.17,14.49-20.61,20.62-24.51,3.53-2.42,7.24-5,8.54-6.13,1.3-.93,2.6-1.86,3.16-1.86s7.06-3.53,14.49-8,14.86-8.54,16.34-9.28a88,88,0,0,0,8.36-5C281.26,250.58,292.59,248.35,298.53,252.25Zm617,70.77c0,.93,1.67,1.86,3.71,1.86,3,0,3.72,1.3,3.72,5.57,0,8.17-5,13-13.37,13-9.66,0-12.26-5-7.62-14.86,2.6-5.94,4.27-7.43,8.54-7.43C913.31,321.16,915.54,321.9,915.54,323ZM149.76,444.68C162,459.91,167.59,466,169.26,466c3.71,0,30.83,24.52,30.46,27.49-.93,5.58-6.13,4.46-21.55-4.64-8.36-4.83-17.08-10-19.68-11.33-2.42-1.3-4.46-4.09-4.46-6.13,0-1.86-1.67-5.2-3.72-7.24s-3.71-4.46-3.71-5.2c0-.93-2.42-4.46-5.57-7.8-6.88-7.8-7.43-13-1.12-13C142.7,438.17,146.23,440.59,149.76,444.68Zm414.74,169c5.57.56,19.87,2.23,31.58,3.9,11.7,1.49,30.64,3.9,41.79,5.39,11.33,1.49,30.46,3.9,42.72,5.57,12.25,1.49,24.51,2.79,27.48,2.79h5v38.45c0,21.36,1.3,69.46,2.78,107.35,1.49,37.7,2.79,84.7,2.79,104v35.48l-15.23,5c-10.77,3.35-22.84,5.39-40.49,6.87-13.74,1.12-37.15,3.16-52,4.65s-35.47,3.16-46.06,3.71-20.24,1.49-21.73,2.23c-2.41.74-2.78-20.43-2.78-163.82V610.35l7,1.12C551.13,612,558.93,613.14,564.5,613.69Zm245.73,31a52.12,52.12,0,0,0,9.66,3.53c8.54,2.23,22.1,7.43,23.21,8.92.56.74,4.28,3.34,8.36,5.75,11.89,7.06,35.48,31,40.86,41.42,8.18,15.79,10.22,23.78,10.22,40.12,0,42.35-12.45,73.92-39.19,99.93-7.25,6.87-15.23,13.56-18,14.86-6.87,3.52-12.44,6.68-15.79,9.65-1.67,1.3-7,3.35-12.07,4.83l-9.28,2.42-1.31-5.95c-1.3-6.31-4.45-224-3.34-226.41C804.66,641.93,805.58,642.11,810.23,644.71Zm159,61.29,21,19.13-1.31,15.79c-.74,8.73-1.67,22.1-1.85,29.72-.37,13.93-3.72,37.89-5.76,41.05-.56,1.11-1.86,7.43-2.79,14.3-.92,6.69-3,14.3-4.45,16.53-1.68,2.41-2.23,4.27-1.68,4.27.75,0,0,1.49-1.48,3.16A181.83,181.83,0,0,0,961,865.74c-7,12.25-11.51,15.78-27.86,22.1-2,.74-7.42,3-12.07,5-4.64,1.86-11.7,4.83-15.79,6.32-4.08,1.67-11,4.46-15.23,6.13-16,6.68-18.76-2.42-3.9-12.26,5.39-3.53,11-6.87,12.63-7.8q13.65-6.69,14.49-12.26a8.4,8.4,0,0,1,5.2-5.76c2.42-.93,4.46-2.6,4.46-3.71,0-.93,2-1.86,4.64-1.86,4.65,0,8.73-3.34,16.72-13.19C953.8,836.58,957,826,960.12,795c1.11-9.84,2.78-22.47,3.71-28,5.2-30.65,5.39-35.29,2.23-41-1.67-3-3.72-5.39-4.46-5.39-.93,0-1.48-2-1.48-4.46,0-3.15-2.79-7-9.29-12.63-8.54-7.43-11.14-12.07-8-15C945.63,685.39,949.34,688,969.22,706Zm69.46,24.52c1.49,1.49,3.72,6.69,4.83,11.7a136.15,136.15,0,0,0,4.27,13.56c8.92,22.47,9.48,25.63,6.13,39.56-1.67,7.43-4.27,16.16-5.76,19.5a33.39,33.39,0,0,0-2.6,11.15c0,7.61-24.33,34.92-33.24,37.52-10.59,3-11,2.6-11-6.88,0-7.61.93-9.84,8.17-18,5.2-6.13,8.17-11.15,8.17-14.3a26.28,26.28,0,0,1,2.79-10.22c1.49-3,2.79-7.24,2.79-9.28,0-2.23,1.3-7.62,3-12.08,3.71-10.4,3.71-24.89.18-33.43-4.83-11.14-5.94-24.7-2.23-28.23C1027.91,727.18,1035.15,727,1038.68,730.52ZM181.52,751.88a134.28,134.28,0,0,0,15.23,10c6.68,3.71,8.35,5.76,8.54,10,.56,12.26-9.29,13.37-23,2.41-5-4.08-10.77-7.42-12.63-7.42-3,0-3.16-.38-.74-1.86,6.68-4.46-18.58.93-35.29,7.43-15.6,6.13-16.35,6.31-17.09,2.41-1.12-5,2-15.79,6.13-20.06,1.86-2,5.57-4.08,8.17-4.27a24.83,24.83,0,0,0,8.92-2.6C151.24,741.67,170.93,743.52,181.52,751.88Z"/></svg>